<svg width="15" height="19" viewBox="0 0 15 19" fill="none" xmlns="http://www.w3.org/2000/svg">
<path d="M3 6.5H9V7.9H3V6.5ZM3 9.3H12V10.7H3V9.3ZM3 12.1H5.2425V13.5H3V12.1Z" fill="#042257"/>
<path d="M9 2.75L6.75 0.5V2H1.5C1.10218 2 0.720644 2.15804 0.43934 2.43934C0.158035 2.72064 0 3.10218 0 3.5V15.5C0 15.8978 0.158035 16.2794 0.43934 16.5607C0.720644 16.842 1.10218 17 1.5 17H4.5V15.5H1.5V3.5H6.75V5L9 2.75ZM6 16.25L8.25 18.5V17H13.5C13.8978 17 14.2794 16.842 14.5607 16.5607C14.842 16.2794 15 15.8978 15 15.5V3.5C15 3.10218 14.842 2.72064 14.5607 2.43934C14.2794 2.15804 13.8978 2 13.5 2H10.5V3.5H13.5V15.5H8.25V14L6 16.25Z" fill="#042257"/>
</svg>
