<?xml version="1.0" standalone="no"?>
<!DOCTYPE svg PUBLIC "-//W3C//DTD SVG 20010904//EN"
 "http://www.w3.org/TR/2001/REC-SVG-20010904/DTD/svg10.dtd">
<svg version="1.0" xmlns="http://www.w3.org/2000/svg"
 width="50.000000pt" height="53.000000pt" viewBox="0 0 50.000000 53.000000"
 preserveAspectRatio="xMidYMid meet">

<g transform="translate(0.000000,53.000000) scale(0.100000,-0.100000)"
fill="#000000" stroke="none">
<path d="M26 479 c-26 -30 -26 -31 -26 -214 0 -183 0 -184 26 -214 l26 -31
198 0 198 0 26 31 c26 30 26 31 26 214 0 183 0 184 -26 214 l-26 31 -198 0
-198 0 -26 -31z m408 -45 c8 -20 8 -318 0 -338 -5 -14 -31 -16 -184 -16 -153
0 -179 2 -184 16 -8 20 -8 318 0 338 5 14 31 16 184 16 153 0 179 -2 184 -16z"/>
<path d="M200 334 c0 -47 -3 -57 -20 -61 -11 -3 -20 -12 -20 -19 0 -8 9 -14
20 -14 11 0 20 -5 20 -11 0 -6 -9 -13 -20 -16 -11 -3 -20 -12 -20 -19 0 -8 9
-14 20 -14 13 0 20 -7 20 -20 0 -11 5 -20 10 -20 6 0 10 9 10 19 0 16 8 20 37
23 52 4 56 28 4 28 -30 0 -41 4 -41 15 0 10 10 15 34 15 48 0 86 33 86 76 0
50 -29 74 -90 74 l-50 0 0 -56z m110 7 c5 -11 10 -24 10 -30 0 -20 -33 -41
-66 -41 -34 0 -34 0 -34 45 l0 45 40 0 c29 0 42 -5 50 -19z"/>
</g>
</svg>
