<svg width="17" height="12" viewBox="0 0 17 12" fill="none" xmlns="http://www.w3.org/2000/svg">
<path fill-rule="evenodd" clip-rule="evenodd" d="M16.2011 0.417787C16.3885 0.605314 16.4938 0.859622 16.4938 1.12479C16.4938 1.38995 16.3885 1.64426 16.2011 1.83179L6.70106 11.3318C6.51353 11.5193 6.25922 11.6246 5.99406 11.6246C5.7289 11.6246 5.47459 11.5193 5.28706 11.3318L0.78706 6.83179C0.604902 6.64318 0.504107 6.39058 0.506385 6.12839C0.508664 5.86619 0.613833 5.61538 0.799241 5.42997C0.984649 5.24456 1.23546 5.13939 1.49766 5.13711C1.75986 5.13483 2.01246 5.23563 2.20106 5.41779L5.99406 9.21079L14.7871 0.417787C14.9746 0.230316 15.2289 0.125 15.4941 0.125C15.7592 0.125 16.0135 0.230316 16.2011 0.417787Z" fill="#042257"/>
</svg>
