<svg width="16" height="17" viewBox="0 0 16 17" fill="none" xmlns="http://www.w3.org/2000/svg">
<path d="M8 0.5C12.4182 0.5 16 3.186 16 6.5V10.5C16 13.814 12.4182 16.5 8 16.5C3.66036 16.5 0.128 13.909 0.00363636 10.677L0 10.5V6.5C0 3.186 3.58182 0.5 8 0.5ZM8 12.5C5.29455 12.5 2.90182 11.492 1.45455 9.95V10.5C1.45455 12.382 4.27855 14.5 8 14.5C11.6436 14.5 14.4276 12.47 14.5418 10.618L14.5455 10.5L14.5462 9.95C13.0989 11.492 10.7062 12.5 8 12.5ZM8 2.5C4.27855 2.5 1.45455 4.618 1.45455 6.5C1.45455 8.382 4.27855 10.5 8 10.5C11.7215 10.5 14.5455 8.382 14.5455 6.5C14.5455 4.618 11.7215 2.5 8 2.5Z" fill="#042257"/>
</svg>
