<svg width="45" height="62" viewBox="0 0 45 62" fill="none" xmlns="http://www.w3.org/2000/svg">
<path d="M44.5 22.5979C44.5031 18.856 43.5586 15.1746 41.7551 11.8996C39.9516 8.62456 37.3484 5.86324 34.1899 3.87493C31.0314 1.88663 27.4211 0.736584 23.6982 0.532778C19.9753 0.328972 16.2619 1.0781 12.9066 2.70981C9.55135 4.34152 6.66432 6.80228 4.51662 9.86103C2.36892 12.9198 1.03102 16.4761 0.628555 20.1962C0.22609 23.9163 0.77226 27.6779 2.21578 31.128C3.6593 34.5781 5.95281 37.6034 8.88095 39.9198V60.4486C8.88095 60.7274 8.99132 60.9949 9.18779 61.192C9.38426 61.3892 9.65072 61.5 9.92857 61.5C10.0912 61.4998 10.2516 61.462 10.3974 61.3896L22.5 55.3151L34.6052 61.3896C34.7649 61.4692 34.9422 61.5066 35.1203 61.4983C35.2984 61.4899 35.4715 61.4361 35.6231 61.3419C35.7746 61.2476 35.8997 61.1161 35.9865 60.9598C36.0733 60.8035 36.1189 60.6275 36.119 60.4486V39.9198C38.7304 37.8567 40.8414 35.2259 42.2931 32.2255C43.7448 29.2251 44.4993 25.9333 44.5 22.5979ZM34.0238 58.7479L22.9662 53.1991C22.8206 53.126 22.6601 53.088 22.4974 53.088C22.3346 53.088 22.1741 53.126 22.0286 53.1991L10.9762 58.7479V41.3997C14.4401 43.5444 18.4299 44.6803 22.5 44.6803C26.57 44.6803 30.5599 43.5444 34.0238 41.3997V58.7479ZM22.5 42.5746C18.5632 42.5746 14.7148 41.403 11.4415 39.208C8.16818 37.0129 5.61694 33.8929 4.1104 30.2427C2.60385 26.5924 2.20967 22.5757 2.9777 18.7006C3.74573 14.8255 5.64148 11.266 8.42521 8.47219C11.2089 5.67839 14.7556 3.77579 18.6168 3.00498C22.4779 2.23417 26.4801 2.62978 30.1172 4.14177C33.7543 5.65377 36.863 8.21424 39.0502 11.4994C41.2374 14.7846 42.4048 18.6469 42.4048 22.5979C42.3992 27.8943 40.3003 32.9723 36.5687 36.7174C32.837 40.4626 27.7774 42.5691 22.5 42.5746ZM22.5 8.92958C19.8064 8.92958 17.1733 9.73121 14.9337 11.2331C12.694 12.735 10.9484 14.8697 9.91764 17.3673C8.88685 19.8648 8.61714 22.6131 9.14264 25.2644C9.66813 27.9158 10.9652 30.3513 12.8699 32.2628C14.7745 34.1744 17.2012 35.4762 19.8431 36.0036C22.4849 36.531 25.2232 36.2603 27.7118 35.2258C30.2003 34.1912 32.3273 32.4393 33.8238 30.1916C35.3203 27.9439 36.119 25.3012 36.119 22.5979C36.1149 18.9741 34.6787 15.4999 32.1255 12.9375C29.5724 10.3751 26.1107 8.93376 22.5 8.92958ZM22.5 34.1634C20.2208 34.1634 17.9928 33.4851 16.0977 32.2142C14.2026 30.9434 12.7256 29.1371 11.8534 27.0238C10.9812 24.9105 10.753 22.5851 11.1976 20.3416C11.6423 18.0981 12.7398 16.0373 14.3514 14.4199C15.9631 12.8024 18.0164 11.7009 20.2518 11.2546C22.4872 10.8084 24.8043 11.0374 26.91 11.9128C29.0157 12.7881 30.8154 14.2705 32.0817 16.1724C33.3479 18.0744 34.0238 20.3105 34.0238 22.5979C34.0203 25.6642 32.8051 28.6039 30.6447 30.7721C28.4843 32.9403 25.5552 34.1599 22.5 34.1634Z" fill="#3262B9" fill-opacity="0.5"/>
</svg>
