<svg width="11" height="13" viewBox="0 0 11 13" fill="none" xmlns="http://www.w3.org/2000/svg">
<path d="M5.22945 0.125C5.39606 0.125188 5.55631 0.190253 5.67746 0.306899C5.79861 0.423545 5.87151 0.582969 5.88128 0.752597C5.89104 0.922224 5.83693 1.08925 5.72999 1.21955C5.62306 1.34986 5.47137 1.4336 5.30593 1.45367L5.22945 1.45833H1.96104C1.80093 1.45835 1.6464 1.5183 1.52675 1.62681C1.40711 1.73532 1.33067 1.88483 1.31194 2.047L1.30736 2.125V10.125C1.30738 10.2883 1.36616 10.4459 1.47256 10.5679C1.57895 10.6899 1.72555 10.7679 1.88456 10.787L1.96104 10.7917H4.90261C5.06921 10.7919 5.22947 10.8569 5.35062 10.9736C5.47177 11.0902 5.54467 11.2496 5.55444 11.4193C5.5642 11.5889 5.51009 11.7559 5.40315 11.8862C5.29622 12.0165 5.14453 12.1003 4.97909 12.1203L4.90261 12.125H1.96104C1.46084 12.125 0.979531 11.9301 0.615597 11.5801C0.251663 11.2302 0.0326138 10.7516 0.00326848 10.2423L3.04644e-09 10.125V2.125C-2.7861e-05 1.61486 0.191087 1.12399 0.534243 0.752826C0.877398 0.381662 1.34665 0.158262 1.84599 0.128333L1.96104 0.125H5.22945ZM8.96 3.76767L10.8086 5.65367C10.9312 5.77869 11 5.94822 11 6.125C11 6.30178 10.9312 6.47131 10.8086 6.59633L8.96 8.48233C8.83734 8.60734 8.67102 8.67753 8.49762 8.67747C8.32422 8.67741 8.15794 8.60709 8.03537 8.482C7.9128 8.35691 7.84397 8.18728 7.84404 8.01043C7.8441 7.83358 7.91304 7.66401 8.0357 7.539L8.76847 6.79167H5.22945C5.05608 6.79167 4.88981 6.72143 4.76722 6.5964C4.64463 6.47138 4.57576 6.30181 4.57576 6.125C4.57576 5.94819 4.64463 5.77862 4.76722 5.6536C4.88981 5.52857 5.05608 5.45833 5.22945 5.45833H8.76847L8.0357 4.711C7.91304 4.58599 7.8441 4.41642 7.84404 4.23957C7.84397 4.06272 7.9128 3.89309 8.03537 3.768C8.15794 3.64291 8.32422 3.57259 8.49762 3.57253C8.67102 3.57247 8.83734 3.64266 8.96 3.76767Z" fill="#042257"/>
</svg>
