<svg width="16" height="17" viewBox="0 0 16 17" fill="none" xmlns="http://www.w3.org/2000/svg">
<path d="M0 0.5H5.6V2.1H1.6V6.1H0V0.5ZM10.4 0.5H16V6.1H14.4V2.1H10.4V0.5ZM8 5.7C8.31826 5.7 8.62348 5.82643 8.84853 6.05147C9.07357 6.27652 9.2 6.58174 9.2 6.9C9.2 7.21826 9.07357 7.52348 8.84853 7.74853C8.62348 7.97357 8.31826 8.1 8 8.1C7.68174 8.1 7.37652 7.97357 7.15147 7.74853C6.92643 7.52348 6.8 7.21826 6.8 6.9C6.8 6.58174 6.92643 6.27652 7.15147 6.05147C7.37652 5.82643 7.68174 5.7 8 5.7ZM10.132 8.7152C10.4786 8.30807 10.7014 7.8102 10.774 7.28046C10.8467 6.75072 10.7661 6.21126 10.5419 5.72585C10.3176 5.24045 9.9591 4.8294 9.50866 4.5413C9.05821 4.2532 8.5347 4.1001 8 4.1001C7.4653 4.1001 6.94179 4.2532 6.49134 4.5413C6.0409 4.8294 5.68236 5.24045 5.45812 5.72585C5.23389 6.21126 5.15332 6.75072 5.22595 7.28046C5.29859 7.8102 5.52138 8.30807 5.868 8.7152C5.29575 9.07533 4.82422 9.57474 4.49752 10.1667C4.17082 10.7587 3.99964 11.4239 4 12.1V12.9H5.6V12.1C5.6 11.4635 5.85286 10.853 6.30294 10.4029C6.75303 9.95286 7.36348 9.7 8 9.7C8.63652 9.7 9.24697 9.95286 9.69706 10.4029C10.1471 10.853 10.4 11.4635 10.4 12.1V12.9H12V12.1C12.0004 11.4239 11.8292 10.7587 11.5025 10.1667C11.1758 9.57474 10.7042 9.07533 10.132 8.7152ZM1.6 10.9V14.9H5.6V16.5H0V10.9H1.6ZM16 10.9V16.5H10.4V14.9H14.4V10.9H16Z" fill="#042257"/>
</svg>
