<svg width="18" height="17" viewBox="0 0 18 17" fill="none" xmlns="http://www.w3.org/2000/svg">
<path d="M16.0382 11.9767C17.3916 11.9767 17.8734 10.8778 17.8896 10.1253L17.8895 6.87704C17.8841 5.51821 16.7905 5.04177 16.038 5.02551L14.1919 5.03088L12.7897 3.6287C11.7611 2.60007 10.6242 2.5459 9.69851 2.86529L4.89116 2.86516L2.72575 5.03058L1.96242 5.02514C0.603583 5.03052 0.127208 6.12407 0.110987 6.87657L0.111072 10.1248C0.111088 10.7095 0.316817 11.1317 0.614578 11.4295C0.998959 11.8139 1.54033 11.9763 1.9626 11.9763L4.8914 11.971L6.83497 13.9145C7.75532 14.8349 8.79474 14.7266 9.52558 14.3315C10.2997 14.7808 11.101 14.6509 11.6911 14.3315C12.7467 14.9541 13.8565 14.4723 14.4141 13.9147L16.0382 12.2907L15.7188 11.9713L16.0382 11.9767ZM13.3314 12.832C13.0877 13.0756 12.6871 13.2705 12.2486 12.8319L11.7072 12.2906L11.1659 12.8319C10.9223 13.0755 10.5217 13.2704 10.0831 12.8319L9.54177 12.2905L9.00041 12.8319C8.7568 13.0755 8.3562 13.2704 7.91768 12.8318L5.53018 10.4443L1.9788 10.4442C1.65398 10.4334 1.64856 10.2439 1.64856 10.1248L1.64306 6.89285C1.65388 6.56803 1.84336 6.56262 1.96246 6.56263L3.3646 6.55725L5.53002 4.39183L7.69549 4.39189L6.83474 5.25264C6.1797 5.90768 5.64378 7.30981 6.83482 8.50086C8.02587 9.6919 9.428 9.15598 10.083 8.50094L13.8727 12.2906L13.3314 12.832ZM16.0381 10.4392L14.1921 10.4446L10.083 6.33547L9.00027 7.41818C8.75666 7.66178 8.35605 7.85667 7.91753 7.41815C7.47901 6.97963 7.67389 6.57902 7.9175 6.33541L9.54157 4.71135C9.79059 4.46232 10.7163 3.72067 11.707 4.7114L13.5532 6.55752L16.0218 6.55758C16.3466 6.56842 16.352 6.7579 16.352 6.877L16.3575 10.109C16.3467 10.4338 16.1572 10.4392 16.0381 10.4392Z" fill="#042257"/>
</svg>
