<svg width="10" height="14" viewBox="0 0 10 14" fill="none" xmlns="http://www.w3.org/2000/svg">
<path d="M3.99072 10.2077H4.5898V7.29108H5.75647V10.2077H6.35555C6.43255 9.50658 6.79013 8.92791 7.37055 8.29616C7.43647 8.225 7.85588 7.79042 7.90547 7.72858C8.31747 7.21387 8.57571 6.59325 8.65045 5.9382C8.7252 5.28315 8.6134 4.62031 8.32794 4.02601C8.04249 3.43172 7.59498 2.93013 7.03695 2.57902C6.47892 2.22791 5.83306 2.04155 5.17376 2.04141C4.51446 2.04127 3.86853 2.22735 3.31035 2.57822C2.75217 2.9291 2.30445 3.43049 2.01874 4.02467C1.73302 4.61884 1.62095 5.28163 1.69541 5.93672C1.76988 6.5918 2.02785 7.21252 2.43963 7.72742C2.4898 7.78983 2.91038 8.225 2.97513 8.29558C3.55613 8.92792 3.91372 9.50658 3.99072 10.2077ZM4.00647 11.3744V11.9577H6.3398V11.3744H4.00647ZM1.52963 8.45775C0.980245 7.77134 0.635936 6.94369 0.536371 6.07015C0.436805 5.1966 0.586034 4.3127 0.966865 3.52027C1.3477 2.72783 1.94464 2.05909 2.68892 1.59109C3.43321 1.12309 4.29457 0.874859 5.17376 0.875C6.05296 0.875141 6.91424 1.12364 7.65837 1.59189C8.40251 2.06013 8.99924 2.72905 9.37982 3.52161C9.76039 4.31417 9.90934 5.19812 9.80949 6.07163C9.70965 6.94514 9.36508 7.77268 8.81547 8.45891C8.4538 8.90925 7.50647 9.62441 7.50647 10.4994V11.9577C7.50647 12.2672 7.38355 12.5639 7.16476 12.7827C6.94597 13.0015 6.64922 13.1244 6.3398 13.1244H4.00647C3.69705 13.1244 3.4003 13.0015 3.18151 12.7827C2.96272 12.5639 2.8398 12.2672 2.8398 11.9577V10.4994C2.8398 9.62441 1.89188 8.90925 1.52963 8.45775Z" fill="#042257"/>
</svg>
