<svg width="11" height="13" viewBox="0 0 11 13" fill="none" xmlns="http://www.w3.org/2000/svg">
<path d="M2.57531 12.125H3.95462V10.0074H8.09255V8.59559H3.95462V7.18382H7.05807C8.95945 7.18382 10.5063 5.60053 10.5063 3.65441C10.5063 1.70829 8.95945 0.125 7.05807 0.125H3.26497C3.08206 0.125 2.90664 0.19937 2.77731 0.331748C2.64797 0.464127 2.57531 0.643671 2.57531 0.830882V5.77206H0.506348V7.18382H2.57531V8.59559H0.506348V10.0074H2.57531V12.125ZM3.95462 1.53676H7.05807C8.19876 1.53676 9.12704 2.48688 9.12704 3.65441C9.12704 4.82194 8.19876 5.77206 7.05807 5.77206H3.95462V1.53676Z" fill="#042257"/>
</svg>
