<?xml version="1.0" standalone="no"?>
<!DOCTYPE svg PUBLIC "-//W3C//DTD SVG 20010904//EN"
 "http://www.w3.org/TR/2001/REC-SVG-20010904/DTD/svg10.dtd">
<svg version="1.0" xmlns="http://www.w3.org/2000/svg"
 width="81.000000pt" height="78.000000pt" viewBox="0 0 81.000000 78.000000"
 preserveAspectRatio="xMidYMid meet">

<g transform="translate(0.000000,78.000000) scale(0.100000,-0.100000)"
fill="#000000" stroke="none">
<path d="M354 772 c-6 -4 -16 -23 -23 -43 -16 -49 -56 -67 -99 -45 -43 22 -56
20 -97 -15 -38 -34 -43 -55 -20 -98 22 -44 3 -84 -49 -102 l-41 -14 -3 -62 -3
-62 41 -12 c58 -18 75 -58 48 -113 -20 -38 -20 -39 -1 -64 11 -14 31 -34 45
-45 24 -18 27 -18 56 -3 17 9 39 16 49 16 30 0 61 -28 68 -60 8 -36 31 -50 82
-50 48 0 57 7 72 51 16 49 56 67 99 45 43 -22 56 -20 97 15 38 34 43 55 20 98
-22 44 -3 84 49 102 l41 14 3 62 3 62 -41 12 c-58 18 -75 58 -48 113 20 38 20
39 1 64 -11 14 -31 34 -45 45 -24 18 -27 18 -56 3 -17 -9 -39 -16 -49 -16 -30
0 -61 28 -68 60 -4 17 -15 35 -25 40 -22 12 -90 13 -106 2z m108 -64 c12 -35
21 -44 56 -57 38 -14 45 -13 78 3 l37 17 30 -29 29 -29 -20 -39 c-19 -37 -19
-41 -2 -79 13 -30 26 -43 54 -53 34 -12 36 -16 36 -56 0 -41 -2 -43 -38 -54
-32 -10 -42 -19 -55 -53 -14 -37 -15 -45 -2 -70 21 -39 19 -52 -10 -79 -24
-23 -25 -23 -64 -6 -34 16 -43 16 -76 5 -30 -11 -42 -23 -56 -56 -17 -40 -21
-43 -58 -43 -37 0 -40 2 -53 42 -12 35 -21 44 -56 57 -38 14 -45 13 -78 -3
l-37 -17 -30 29 -29 29 20 39 c19 37 19 41 2 79 -13 30 -26 43 -54 53 -34 12
-36 16 -36 56 0 41 2 43 38 54 32 10 42 19 55 53 14 37 15 45 2 70 -21 39 -19
52 10 79 24 23 25 23 64 6 34 -16 43 -16 76 -5 30 11 42 23 56 57 17 39 21 42
58 42 37 0 40 -2 53 -42z"/>
<path d="M366 558 c-54 -12 -91 -41 -116 -94 -56 -115 26 -246 155 -246 129 0
211 131 155 246 -36 75 -111 112 -194 94z m114 -47 c92 -65 91 -175 -2 -244
-35 -26 -103 -27 -145 -2 -62 36 -90 124 -59 183 43 83 137 112 206 63z"/>
</g>
</svg>
