<svg width="16" height="17" viewBox="0 0 16 17" fill="none" xmlns="http://www.w3.org/2000/svg">
<path d="M7.94215 0.502757C7.91613 0.507449 7.89044 0.513811 7.86523 0.521804C7.7263 0.552893 7.60246 0.63112 7.51482 0.743153C7.42719 0.855187 7.38117 0.994094 7.38462 1.13621V1.75061H1.84615C1.35652 1.75061 0.886947 1.9448 0.540726 2.29047C0.194505 2.63614 0 3.10496 0 3.59381L0 11.581C0 12.5985 0.827077 13.4242 1.84615 13.4242H7.38462V13.6546L4.03815 15.3252C3.89029 15.3965 3.77684 15.5235 3.72277 15.6783C3.6687 15.8331 3.67844 16.003 3.74985 16.1506C3.82125 16.2983 3.94847 16.4115 4.10352 16.4655C4.25857 16.5195 4.42875 16.5098 4.57662 16.4385L7.38462 15.037V15.2674C7.38462 15.4304 7.44945 15.5867 7.56486 15.7019C7.68026 15.8171 7.83679 15.8818 8 15.8818C8.16321 15.8818 8.31974 15.8171 8.43514 15.7019C8.55055 15.5867 8.61539 15.4304 8.61539 15.2674V15.037L11.4234 16.4385C11.5713 16.5098 11.7414 16.5195 11.8965 16.4655C12.0515 16.4115 12.1788 16.2983 12.2502 16.1506C12.3216 16.003 12.3313 15.8331 12.2772 15.6783C12.2232 15.5235 12.1097 15.3965 11.9618 15.3252L8.61539 13.6546V13.4242H14.1538C15.1729 13.4242 16 12.5985 16 11.581V3.59381C16 3.10496 15.8055 2.63614 15.4593 2.29047C15.1131 1.9448 14.6435 1.75061 14.1538 1.75061H8.61539V1.13621C8.61849 1.04884 8.60289 0.961811 8.56962 0.880944C8.53634 0.800076 8.48617 0.72723 8.42244 0.667271C8.35872 0.607311 8.28291 0.56162 8.20009 0.53325C8.11726 0.50488 8.02933 0.494484 7.94215 0.502757ZM1.23077 3.59381H14.7692V11.581H1.23077V3.59381ZM12.8462 4.20821C12.7083 4.22301 12.5795 4.28384 12.4806 4.38086L10.4615 6.39733L9.05785 4.99465C8.99062 4.92578 8.90815 4.87363 8.81705 4.84239C8.72596 4.81115 8.6288 4.80169 8.53338 4.81478C8.43795 4.82787 8.34694 4.86314 8.26766 4.91775C8.18839 4.97236 8.12305 5.04479 8.07692 5.1292L6.24985 8.31672L5.49969 6.43481C5.46327 6.33764 5.40278 6.25126 5.32389 6.18373C5.245 6.1162 5.15026 6.06972 5.04852 6.04862C4.94677 6.02752 4.84133 6.03248 4.74203 6.06306C4.64272 6.09363 4.55279 6.14881 4.48062 6.22345L2.63446 8.06666C2.57628 8.12471 2.53011 8.19364 2.49861 8.2695C2.4671 8.34536 2.45087 8.42668 2.45084 8.50881C2.45081 8.59094 2.46699 8.67226 2.49844 8.74815C2.52989 8.82404 2.57601 8.89299 2.63415 8.95109C2.6923 9.00918 2.76134 9.05527 2.83732 9.08673C2.91331 9.11818 2.99475 9.13439 3.07701 9.13441C3.15927 9.13444 3.24073 9.11829 3.31674 9.08689C3.39275 9.05549 3.46181 9.00945 3.52 8.9514L4.69292 7.78035L5.57785 9.96885C5.61961 10.0786 5.692 10.1741 5.78645 10.2441C5.8809 10.314 5.99344 10.3555 6.11076 10.3636C6.22809 10.3717 6.34527 10.346 6.44844 10.2897C6.55162 10.2333 6.63646 10.1486 6.69292 10.0456L8.75077 6.45508L10.0197 7.72259C10.0771 7.78187 10.1458 7.829 10.2218 7.8612C10.2979 7.89339 10.3796 7.90998 10.4622 7.90998C10.5447 7.90998 10.6265 7.89339 10.7025 7.8612C10.7785 7.829 10.8472 7.78187 10.9046 7.72259L13.3662 5.26499C13.4634 5.17513 13.5289 5.05636 13.5531 4.92632C13.5773 4.79628 13.5588 4.66192 13.5004 4.54321C13.442 4.4245 13.3468 4.32778 13.2289 4.26743C13.111 4.20707 12.9768 4.1863 12.8462 4.20821Z" fill="#042257"/>
</svg>
