<?xml version="1.0" standalone="no"?>
<!DOCTYPE svg PUBLIC "-//W3C//DTD SVG 20010904//EN"
 "http://www.w3.org/TR/2001/REC-SVG-20010904/DTD/svg10.dtd">
<svg version="1.0" xmlns="http://www.w3.org/2000/svg"
 width="50.000000pt" height="53.000000pt" viewBox="0 0 50.000000 53.000000"
 preserveAspectRatio="xMidYMid meet">

<g transform="translate(0.000000,53.000000) scale(0.100000,-0.100000)"
fill="#000000" stroke="none">
<path d="M165 499 c-43 -12 -112 -74 -138 -123 -30 -58 -30 -164 0 -222 94
-178 352 -178 446 0 30 58 30 164 0 222 -28 53 -91 107 -142 122 -44 14 -122
14 -166 1z m189 -80 c42 -28 86 -108 86 -154 0 -47 -44 -126 -87 -155 -53 -36
-153 -36 -206 0 -43 29 -87 109 -86 154 1 70 51 144 114 173 46 21 136 12 179
-18z"/>
<path d="M141 308 c1 -26 44 -132 56 -135 6 -2 18 18 28 47 9 27 20 48 24 45
5 -2 14 -25 21 -50 7 -25 18 -45 25 -45 7 0 25 34 38 75 20 57 22 75 12 75 -7
0 -21 -22 -30 -50 -9 -27 -18 -50 -20 -50 -2 0 -11 23 -20 50 -18 54 -39 65
-49 25 -3 -13 -11 -37 -17 -52 l-11 -28 -17 49 c-16 46 -42 74 -40 44z"/>
</g>
</svg>
