<?xml version="1.0" standalone="no"?>
<!DOCTYPE svg PUBLIC "-//W3C//DTD SVG 20010904//EN"
 "http://www.w3.org/TR/2001/REC-SVG-20010904/DTD/svg10.dtd">
<svg version="1.0" xmlns="http://www.w3.org/2000/svg"
 width="47.000000pt" height="59.000000pt" viewBox="0 0 47.000000 59.000000"
 preserveAspectRatio="xMidYMid meet">

<g transform="translate(0.000000,59.000000) scale(0.100000,-0.100000)"
fill="#000000" stroke="none">
<path d="M210 552 c0 -21 -4 -22 -88 -22 -127 0 -122 10 -122 -237 0 -233 0
-233 88 -233 49 0 52 2 52 25 0 23 -4 25 -45 25 l-45 0 0 185 0 185 79 0 c73
0 80 -2 83 -21 3 -19 6 -18 36 13 l32 34 -35 34 c-32 31 -35 32 -35 12z"/>
<path d="M330 505 c0 -23 4 -25 45 -25 l45 0 0 -185 0 -185 -79 0 c-73 0 -80
2 -83 21 -3 19 -6 18 -36 -13 l-32 -34 35 -34 c32 -31 35 -32 35 -12 0 21 4
22 88 22 127 0 122 -10 122 237 0 233 0 233 -88 233 -49 0 -52 -2 -52 -25z"/>
<path d="M97 383 c-4 -3 -7 -12 -7 -20 0 -10 23 -13 95 -13 88 0 95 1 95 20 0
18 -7 20 -88 20 -49 0 -92 -3 -95 -7z"/>
<path d="M90 280 c0 -19 7 -20 145 -20 138 0 145 1 145 20 0 19 -7 20 -145 20
-138 0 -145 -1 -145 -20z"/>
<path d="M92 193 c2 -12 14 -19 36 -21 27 -3 32 0 32 17 0 17 -6 21 -36 21
-28 0 -35 -3 -32 -17z"/>
</g>
</svg>
